<?xml version="1.0" encoding="UTF-8" standalone="no"?>
<!DOCTYPE svg PUBLIC "-//W3C//DTD SVG 20010904//EN"
              "http://www.w3.org/TR/2001/REC-SVG-20010904/DTD/svg10.dtd">
<svg xmlns="http://www.w3.org/2000/svg"
     width="4in" height="4in"
     viewBox="0 0 600 600">
  <path class="bulb" id="lamp"
        fill="black" stroke="black" stroke-width="0"
        d="M 267.00,17.00
           C 265.27,24.37 262.72,28.37 259.87,35.00
             258.76,37.59 257.86,41.34 255.58,43.07
             253.61,44.56 248.58,45.25 246.00,45.89
             246.00,45.89 232.00,50.33 232.00,50.33
             217.75,55.10 208.40,60.31 196.00,68.67
             156.94,95.00 130.14,140.66 128.99,188.00
             128.99,188.00 128.32,198.00 128.32,198.00
             128.32,198.00 129.17,212.00 129.17,212.00
             131.05,231.44 138.75,254.10 148.43,271.00
             160.26,291.66 170.24,298.30 182.25,315.00
             195.99,334.09 204.71,354.19 210.12,377.00
             212.12,385.46 213.99,396.34 214.00,405.00
             214.03,422.03 211.96,438.61 232.00,445.87
             235.47,447.13 238.39,446.99 242.00,447.00
             242.00,447.00 320.00,447.00 320.00,447.00
             332.56,447.00 345.30,448.99 354.90,438.96
             364.53,428.89 361.85,417.72 362.00,405.00
             362.36,374.52 374.65,342.03 391.52,317.00
             391.52,317.00 416.25,287.00 416.25,287.00
             432.86,264.45 446.66,231.35 447.00,203.00
             447.00,203.00 447.00,189.00 447.00,189.00
             446.97,169.21 439.45,143.43 430.22,126.00
             426.62,119.21 420.54,110.14 415.87,104.00
             413.89,101.40 408.58,95.62 407.84,93.00
             406.85,89.49 414.37,75.04 416.96,72.49
             420.16,69.34 423.52,73.66 425.57,76.01
             431.42,82.68 436.97,89.67 441.97,97.00
             460.05,123.51 468.91,152.23 471.09,184.00
             471.09,184.00 471.99,196.00 471.99,196.00
             471.99,196.00 471.09,205.00 471.09,205.00
             468.76,238.33 460.34,264.54 442.58,293.00
             442.58,293.00 411.03,333.00 411.03,333.00
             395.88,355.18 386.62,384.11 386.01,411.00
             385.79,420.87 387.84,424.99 384.56,436.00
             377.55,459.54 356.42,470.96 333.00,471.00
             333.00,471.00 241.00,471.00 241.00,471.00
             213.63,470.87 190.14,452.66 190.00,424.00
             190.00,424.00 190.00,409.00 190.00,409.00
             189.72,385.71 179.28,356.28 166.48,337.00
             166.48,337.00 154.70,321.00 154.70,321.00
             154.70,321.00 140.90,305.00 140.90,305.00
             131.06,292.00 122.70,277.21 116.81,262.00
             87.73,186.94 109.94,101.62 175.00,52.89
             203.22,31.76 232.38,21.57 267.00,17.00 Z
           M 420.00,71.00
           C 420.00,71.00 419.00,71.00 419.00,71.00
             419.00,71.00 420.00,72.00 420.00,72.00
             420.00,72.00 420.00,71.00 420.00,71.00 Z
           M 210.00,488.57
           C 210.00,488.57 260.00,488.00 260.00,488.00
             260.00,488.00 357.00,488.00 357.00,488.00
             361.44,488.01 365.14,487.78 368.90,490.65
             375.34,495.56 375.61,505.74 367.96,509.69
             365.07,511.18 361.19,511.00 358.00,511.00
             358.00,511.00 217.00,511.00 217.00,511.00
             212.82,510.99 208.66,511.22 205.22,508.35
             198.52,502.76 200.90,492.17 210.00,488.57 Z
           M 204.00,545.00
           C 200.09,541.49 202.20,533.99 206.21,531.23
             209.19,529.17 212.53,529.05 216.00,529.00
             216.00,529.00 290.00,529.00 290.00,529.00
             290.00,529.00 360.00,529.00 360.00,529.00
             376.38,529.22 374.25,543.58 370.57,547.78
             366.82,552.06 361.19,551.99 356.00,552.00
             356.00,552.00 240.00,552.00 240.00,552.00
             240.00,552.00 217.00,552.00 217.00,552.00
             211.26,551.97 205.34,551.68 204.00,545.00 Z
           M 257.00,569.00
           C 257.00,569.00 284.00,569.00 284.00,569.00
             284.00,569.00 311.00,569.00 311.00,569.00
             312.62,569.03 315.06,568.96 316.40,570.02
             319.00,572.07 318.14,582.17 316.99,585.00
             314.45,591.26 310.27,592.91 304.00,593.00
             304.00,593.00 274.00,593.00 274.00,593.00
             267.13,592.96 261.87,591.74 258.45,585.00
             256.41,580.97 257.00,573.62 257.00,569.00 Z" />

  <path id="lightning_1"
        fill="red" stroke="red" stroke-width="0"
        d="M 357.45,218.73
           C 357.45,218.73 238.73,223.45 238.73,223.45
             238.73,223.45 383.09,11.64 383.09,11.64
             383.09,11.64 296.67,12.00 296.67,12.00
             296.67,12.00 187.45,260.55 187.45,260.55
             187.45,260.55 290.33,260.67 290.33,260.67
             290.33,260.67 222.75,436.00 222.75,436.00
             222.75,436.00 225.00,438.62 225.00,438.62
             225.00,438.62 357.43,218.70 357.43,218.70" />

  <path id="lightning_2"
        fill="blue" stroke="blue" stroke-width="0"
        d="M 313.88,189.62
           C 313.88,189.62 412.88,190.25 412.88,190.25
             412.88,190.25 225.75,437.88 225.75,437.88
             225.75,437.88 357.00,218.75 357.00,218.75
             357.00,218.75 238.50,224.12 238.50,224.12
             238.50,224.12 383.00,12.00 383.00,12.00
             383.00,12.00 414.38,11.88 414.38,11.88
             414.38,11.88 314.00,189.50 314.00,189.50" />
</svg>